<?xml version="1.0" encoding="utf-8"?>
<!-- Generator: Adobe Illustrator 19.2.1, SVG Export Plug-In . SVG Version: 6.00 Build 0)  -->
<svg version="1.1" id="layer" xmlns="http://www.w3.org/2000/svg" xmlns:xlink="http://www.w3.org/1999/xlink" x="0px" y="0px"
	viewBox="0 0 652 652" style="enable-background:new 0 0 652 652;" xml:space="preserve">
<style type="text/css">
	.st0{fill:#007AFF;}
</style>
<path d="M341.8,401.6l36.9-95h6.6l-39.9,100.3h-7.6L298,306.6h6.9l36.7,95H341.8z M410.7,406.9V306.6h6.5v100.3H410.7z M442.6,311.9
	v-5.3h84.1v5.3H488v95h-6.8v-95H442.6z M552.1,306.6h73.6v5.3h-66.9v40.2h62.9v5.3h-62.9v44.1h67.7v5.3h-74.4V306.6z"/>
<path class="st0" d="M26.5,240.8l110-24.8l-11,278.3L26.5,240.8z M162.6,209.6l219.8-51.8L130,491L162.6,209.6z"/>
</svg>
